<svg xmlns="http://www.w3.org/2000/svg" viewBox="0 0 179.27 69.67"><defs><style>.cls-1{fill:#5f4538;}.cls-2{fill:none;stroke:#5f4538;stroke-linecap:round;stroke-miterlimit:10;stroke-width:3px;}</style></defs><g id="Layer_1" data-name="Layer 1"><path class="cls-1" d="M4.2,56.34c7.05,1.29,14.27,2.36,21.45,3.29S40.05,61.42,47.27,62c3.63.33,7.18.6,10.75.73s7.15.14,10.72,0a141.91,141.91,0,0,0,21.31-2.22c1.75-.31,3.48-.69,5.19-1.1s3.66-.82,5.49-1.18c3.68-.67,7.37-1.23,11.06-1.62a216.48,216.48,0,0,1,22.14-1.17c7.37,0,14.7.21,22,.51l21.89,1.07h0a1.49,1.49,0,0,1-.07,3H155.85c-7.29,0-14.56,0-21.81.33s-14.45.78-21.57,1.76c-3.56.48-7.08,1.12-10.57,1.86-1.74.39-3.45.84-5.19,1.25s-3.66.91-5.5,1.28A147.14,147.14,0,0,1,69,69.27q-5.58.28-11.18.18c-3.73-.08-7.48-.34-11.13-.63-14.69-1.15-29.23-3-43.81-5.59a3.51,3.51,0,0,1,1.24-6.91H4.2Z" transform="translate(0 -27.21)"/><line class="cls-2" x1="74.44" y1="13.47" x2="51" y2="38.55"/><polyline class="cls-2" points="42.02 37.8 64.96 51.48 83.91 56.22"/><line class="cls-2" x1="78.17" y1="68.17" x2="64.96" y2="51.49"/><line class="cls-2" x1="96.11" y1="35.14" x2="140.49" y2="1.5"/><line class="cls-2" x1="109" y1="5.06" x2="110.58" y2="24.17"/><line class="cls-2" x1="110.34" y1="34.18" x2="140.49" y2="43.91"/><line class="cls-2" x1="157.29" y1="30.07" x2="170.58" y2="21.17"/></g></svg>