<svg xmlns="http://www.w3.org/2000/svg" viewBox="0 0 179.27 82.81"><defs><style>.cls-1{fill:#86a688;}.cls-2{fill:#5f4538;}.cls-3{fill:none;stroke:#5f4538;stroke-linecap:round;stroke-miterlimit:10;stroke-width:3px;}</style></defs><g id="Layer_3" data-name="Layer 3"><path class="cls-1" d="M62.72,52.82S60.21,28.71,83.91,31.48C83.91,31.48,87.69,54.37,62.72,52.82Z" transform="translate(0 -21.6)"/><path class="cls-1" d="M66.26,80.87S90.51,81.19,85,104.4C85,104.4,61.82,105.49,66.26,80.87Z" transform="translate(0 -21.6)"/><path class="cls-1" d="M110.17,42s-13.71-8.83-2.29-20.1C107.88,21.93,121.49,29.58,110.17,42Z" transform="translate(0 -21.6)"/><path class="cls-1" d="M131.56,35.48s-.16-16.88,16.07-13.41C147.63,22.07,148.76,38.18,131.56,35.48Z" transform="translate(0 -21.6)"/><path class="cls-1" d="M129.61,68s14.14-9.21,19.94,6.34C149.55,74.3,136.57,83.91,129.61,68Z" transform="translate(0 -21.6)"/><path class="cls-1" d="M162.43,53.77s1-15.38,15.6-11.06C178,42.71,177.9,57.47,162.43,53.77Z" transform="translate(0 -21.6)"/><path class="cls-1" d="M69.66,78.37s16.92-11,23.87,7.59C93.53,86,78,97.46,69.66,78.37Z" transform="translate(0 -21.6)"/></g><g id="Layer_1" data-name="Layer 1"><path class="cls-2" d="M4.2,56.34c7.05,1.29,14.27,2.36,21.45,3.29S40.05,61.42,47.27,62c3.63.33,7.18.6,10.75.73s7.15.14,10.72,0a141.91,141.91,0,0,0,21.31-2.22c1.75-.31,3.48-.69,5.19-1.1s3.66-.82,5.49-1.18c3.68-.67,7.37-1.23,11.06-1.62a216.48,216.48,0,0,1,22.14-1.17c7.37,0,14.7.21,22,.51l21.89,1.07h0a1.49,1.49,0,0,1-.07,3H155.85c-7.29,0-14.56,0-21.81.33s-14.45.78-21.57,1.76c-3.56.48-7.08,1.12-10.57,1.86-1.74.39-3.45.84-5.19,1.25s-3.66.91-5.5,1.28A147.14,147.14,0,0,1,69,69.27q-5.58.28-11.18.18c-3.73-.08-7.48-.34-11.13-.63-14.69-1.15-29.23-3-43.81-5.59a3.51,3.51,0,0,1,1.24-6.91H4.2Z" transform="translate(0 -21.6)"/><line class="cls-3" x1="74.44" y1="19.07" x2="51" y2="44.16"/><polyline class="cls-3" points="42.02 43.41 64.96 57.09 83.91 61.83"/><line class="cls-3" x1="78.17" y1="73.78" x2="64.96" y2="57.09"/><line class="cls-3" x1="96.11" y1="40.74" x2="140.49" y2="7.11"/><line class="cls-3" x1="109" y1="10.67" x2="110.58" y2="29.77"/><line class="cls-3" x1="110.34" y1="39.79" x2="140.49" y2="49.51"/><line class="cls-3" x1="157.29" y1="35.67" x2="170.58" y2="26.78"/></g></svg>