<?xml version="1.0" encoding="utf-8"?>
<!-- Generator: Adobe Illustrator 24.2.1, SVG Export Plug-In . SVG Version: 6.00 Build 0)  -->
<svg version="1.1" id="Layer_1" xmlns="http://www.w3.org/2000/svg" xmlns:xlink="http://www.w3.org/1999/xlink" x="0px" y="0px"
	 viewBox="0 0 27.7 27.1" style="enable-background:new 0 0 27.7 27.1;" xml:space="preserve">
<style type="text/css">
	.st0{fill:#D8D0BE;}
</style>
<g>
	<g>
		<path class="st0" d="M27.7,20.5c-0.1,0-0.2-0.1-0.3-0.2C27.4,20.5,27.7,20.5,27.7,20.5z"/>
	</g>
	<g>
		<path class="st0" d="M27.1,18.4c0-0.1-0.1-0.1-0.1-0.2c-1.5,0.2,0.2,1.4,0.4,2.2C27.5,19.6,27.5,19,27.1,18.4z"/>
	</g>
	<g>
		<path class="st0" d="M20,10.6c-1.7,2.1,2.4,6.7,4.5,6.3c0.5,0.2,1,0,1.5-0.1l-0.1,0c0.1,0,0.2,0,0.3,0l0,0c0.1,0,0.1,0,0.2,0
			L26,17c0.2,0,0.6-0.3,0.8-0.4l-0.1,0c0,0,0.1-0.1,0.1-0.1c-0.1,0-0.2,0.1-0.3,0.1C29.9,12.1,21.1,3.7,20,10.6z"/>
	</g>
	<g>
		<path class="st0" d="M20,17.5c-0.6-2.4-4-4.1-5.8-1.9c-1.1,1.3-0.5,3.6-0.2,5.1c0.5,1.6,2.7,2.2,4.2,2l-0.7,0.1c0.4-0.4,1,0,1.5,0
			c-0.2-0.2-0.5-0.2-0.7-0.2c0.5-0.3,2.5-1.1,1.8-1.7C20.6,19.8,20.6,18.5,20,17.5z"/>
	</g>
	<g>
		<path class="st0" d="M19,24.2c-1,0.7-0.4,2.1,0.1,2.9C18.6,26.4,20.3,23.7,19,24.2z"/>
	</g>
	<g>
		<path class="st0" d="M7.7,24.4c-1,0.1,0,1.9-0.1,2.5v-0.2C7.9,26.9,8.7,24.3,7.7,24.4z"/>
	</g>
	<g>
		<path class="st0" d="M12.1,16.2c-2-3-5.8-0.7-6.7,2.1c0-0.1,0-0.1,0-0.2c-0.4,2,0.3,3.9,2,5l-0.3-0.4c1.4,0.9,2.6,0.3,3.9-0.5
			C12.3,20.6,12.1,18.1,12.1,16.2z"/>
	</g>
	<g>
		<path class="st0" d="M0.4,14.8c0.2,1,0.9,1.5,1.9,1.6l-0.3,0.1c1.4,0.2,3-1.2,4.1-2c1.3-1.3,1.2-3.2,0.4-4.8
			C3.1,6.2-1.3,11,0.4,14.8z"/>
	</g>
	<g>
		<path class="st0" d="M1.5,17.8c-0.3,0.5,0.2,1.2,0.2,1.7C1.7,19.3,2.2,17.3,1.5,17.8z"/>
	</g>
	<g>
		<path class="st0" d="M7.3,3.1c1.6,2,3.3,5.2,6.2,5.2l-0.4-0.1c3.3,0,5.2-3.5,7.2-5.6c1.3-4.8-4.3-1.9-5.9,0
			c-1.8,0.6-3.3-2.2-5.2-2.4C7.3-0.6,5.8,1.6,7.3,3.1z"/>
	</g>
</g>
</svg>
